<?xml version="1.0" standalone="no"?>
<!DOCTYPE svg PUBLIC "-//W3C//DTD SVG 20010904//EN"
 "http://www.w3.org/TR/2001/REC-SVG-20010904/DTD/svg10.dtd">
<svg version="1.0" xmlns="http://www.w3.org/2000/svg"
 width="1780.000000pt" height="1780.000000pt" viewBox="0 0 1780.000000 1780.000000"
 preserveAspectRatio="xMidYMid meet">
<metadata>
Created by potrace 1.11, written by Peter Selinger 2001-2013
</metadata>
<g transform="translate(0.000000,1780.000000) scale(0.100000,-0.100000)"
fill="#000000" stroke="none">
<path d="M3335 12151 c-289 -84 -537 -392 -793 -986 -181 -418 -328 -852 -732
-2165 -688 -2233 -1067 -3254 -1632 -4393 l-178 -359 0 -391 c0 -228 4 -387 9
-381 5 5 47 75 95 156 477 820 909 1776 1333 2953 209 581 403 1177 752 2306
266 864 351 1131 459 1445 250 725 457 1150 650 1337 150 144 248 143 398 -7
209 -210 426 -673 710 -1521 41 -120 71 -222 66 -225 -4 -4 -37 -15 -75 -25
-37 -9 -115 -41 -175 -70 -253 -125 -455 -321 -677 -655 -280 -421 -446 -773
-957 -2020 -437 -1067 -624 -1493 -898 -2045 -500 -1004 -1018 -1789 -1602
-2426 l-88 -97 0 -276 0 -277 55 47 c66 57 356 366 487 519 556 648 1030 1387
1508 2350 288 580 444 936 880 2000 382 933 476 1149 655 1505 292 580 550
901 828 1030 72 34 178 63 188 52 5 -5 303 -955 422 -1345 l21 -69 -75 -65
c-163 -144 -345 -346 -506 -559 -267 -355 -476 -688 -993 -1584 -637 -1104
-995 -1663 -1422 -2218 -431 -560 -893 -1044 -1398 -1467 -129 -108 -421 -327
-552 -415 l-97 -65 -1 -233 0 -233 30 16 c59 31 431 284 571 390 694 523 1289
1131 1870 1915 419 564 712 1026 1342 2117 662 1143 897 1496 1249 1876 55 59
103 107 108 107 4 0 60 -154 123 -342 63 -189 149 -441 192 -560 l76 -218
-127 -147 c-70 -82 -206 -247 -303 -368 -167 -208 -262 -331 -781 -1010 -652
-853 -1072 -1351 -1560 -1849 -817 -832 -1627 -1430 -2562 -1889 l-228 -112 0
-598 0 -599 118 7 c855 47 1454 109 2127 221 1904 315 3585 921 5339 1924
l239 137 121 -141 c141 -164 432 -464 592 -611 949 -869 2050 -1375 3279
-1510 309 -33 438 -35 3208 -35 l2777 0 -2 237 -3 236 -228 33 c-739 106
-1466 296 -2112 552 -1494 593 -2730 1537 -3991 3047 -210 252 -277 336 -272
340 18 18 539 295 555 295 6 0 113 -115 238 -256 1067 -1200 1850 -1908 2815
-2549 919 -610 1840 -1036 2982 -1381 17 -5 18 9 18 201 0 156 -3 207 -12 209
-132 40 -530 175 -679 232 -391 147 -675 272 -1054 464 -1330 674 -2399 1543
-3719 3025 -93 105 -178 199 -188 211 -19 21 -19 21 104 69 99 38 404 145 415
145 6 0 335 -291 743 -655 711 -636 1090 -963 1480 -1277 889 -715 1681 -1241
2570 -1708 118 -62 243 -126 278 -141 l62 -28 0 219 0 220 -102 51 c-477 239
-1110 624 -1648 1005 -629 444 -1216 920 -2036 1650 -891 794 -874 778 -855
786 10 3 79 16 154 28 l136 22 233 -119 c632 -324 1103 -649 2328 -1613 511
-402 833 -649 1100 -846 204 -150 637 -456 672 -475 17 -9 18 0 18 228 l0 238
-58 39 c-293 202 -754 550 -1462 1106 -936 735 -1261 975 -1724 1274 -81 53
-141 96 -133 96 30 0 282 -69 421 -115 208 -69 416 -155 656 -272 540 -262
987 -542 1980 -1238 l320 -224 0 242 0 242 -298 206 c-1212 842 -1861 1202
-2581 1433 -413 133 -785 196 -1192 202 l-235 3 -75 32 c-363 155 -828 283
-1248 344 -102 15 -121 21 -170 54 -92 62 -274 167 -390 225 -364 183 -684
266 -1023 266 -129 0 -130 0 -168 30 -81 65 -283 186 -430 259 -214 106 -438
178 -672 216 l-37 6 -6 -48 c-10 -79 -13 -81 -14 -14 l-1 64 -124 -7 c-69 -3
-137 -9 -153 -12 -24 -4 -44 7 -133 77 -315 246 -672 425 -981 493 l-76 17
-78 90 c-395 453 -887 735 -1335 764 -159 11 -136 -7 -242 188 -300 549 -556
859 -863 1042 -96 58 -235 115 -326 135 l-56 13 -33 106 c-48 154 -191 568
-267 771 -365 973 -686 1372 -1102 1369 -60 0 -119 -7 -156 -18z m1786 -2743
c86 -56 268 -240 358 -361 75 -101 214 -321 289 -458 l42 -76 -118 -38 c-64
-20 -159 -57 -211 -81 -52 -24 -95 -43 -96 -42 -2 2 -78 246 -170 543 -92 297
-169 543 -172 548 -10 17 19 4 78 -35z m976 -1490 c125 -277 263 -594 263
-605 0 -5 -26 -28 -58 -50 -84 -59 -264 -208 -355 -293 -43 -40 -79 -71 -81
-69 -14 16 -361 1058 -354 1064 39 34 252 125 358 154 132 35 112 52 227 -201z
m443 202 c153 -42 287 -104 428 -198 89 -59 275 -211 276 -226 1 -5 -44 -19
-99 -32 -109 -24 -273 -79 -372 -124 -35 -16 -65 -26 -67 -22 -2 4 -61 138
-131 297 -70 160 -131 298 -137 308 -12 23 7 22 102 -3z m1135 -917 c96 -130
319 -462 314 -468 -2 -2 -47 -31 -99 -66 -158 -103 -365 -263 -526 -406 l-81
-71 -18 36 c-99 208 -397 904 -391 917 6 16 181 87 291 119 113 33 247 54 346
55 l76 1 88 -117z m719 -180 c38 -25 65 -48 60 -52 -5 -4 -32 -17 -61 -29
l-52 -20 -52 81 c-29 45 -59 93 -68 107 -15 23 -13 23 44 -10 33 -18 91 -53
129 -77z m-1754 -355 c62 -145 164 -375 226 -512 l112 -250 -256 -262 c-141
-145 -260 -260 -263 -256 -16 18 -272 648 -389 956 l-53 140 144 140 c132 129
339 306 357 306 5 0 59 -118 122 -262z m2920 -15 c103 -34 317 -129 309 -137
-2 -2 -59 -22 -126 -44 l-122 -40 -93 102 c-50 55 -106 116 -122 135 l-31 33
40 -7 c22 -4 87 -23 145 -42z m-330 -382 c0 -5 -37 -28 -82 -52 -46 -23 -128
-69 -183 -101 -54 -33 -103 -60 -107 -61 -7 -2 -297 495 -301 516 -2 12 61 38
188 78 l90 28 198 -200 c108 -110 197 -204 197 -208z m-866 -159 c86 -151 156
-277 156 -280 -1 -4 -43 -37 -94 -74 -111 -80 -395 -306 -555 -441 l-114 -97
-55 103 c-30 56 -97 189 -149 296 l-94 194 23 25 c39 41 300 263 406 345 139
106 305 218 313 209 4 -4 77 -130 163 -280z m2088 0 c119 -102 278 -251 278
-261 0 -3 -48 -23 -108 -45 -59 -21 -164 -63 -233 -92 -69 -30 -130 -54 -136
-54 -5 0 -71 78 -145 173 -75 94 -154 195 -176 223 l-41 51 72 21 c40 11 117
30 172 41 218 43 196 47 317 -57z m638 23 c131 -42 284 -107 268 -115 -7 -4
-53 -15 -101 -25 l-89 -18 -96 97 c-54 53 -90 95 -82 92 8 -2 53 -17 100 -31z
m-5301 -158 c100 -258 163 -412 367 -884 l14 -31 -257 -274 c-481 -512 -1055
-1074 -1448 -1419 -1022 -896 -2118 -1577 -3300 -2048 -126 -50 -240 -96 -252
-101 -50 -21 -15 2 150 101 927 555 1793 1309 2648 2304 301 352 551 665 1009
1265 645 846 984 1270 1000 1254 5 -5 36 -80 69 -167z m3906 -259 c102 -128
185 -235 185 -239 0 -4 -39 -28 -87 -54 -49 -26 -166 -95 -262 -152 -96 -57
-178 -100 -182 -96 -9 9 -288 498 -295 518 -3 8 27 33 83 66 106 65 343 188
361 189 7 0 95 -104 197 -232z m2416 -159 c104 -78 189 -145 189 -150 0 -4
-24 -15 -52 -25 -29 -9 -129 -48 -221 -86 -93 -37 -170 -68 -171 -68 -7 0
-354 396 -356 405 -1 10 71 25 245 49 180 25 153 34 366 -125z m-1000 -96 c52
-55 263 -289 352 -389 l18 -22 -118 -62 c-65 -35 -187 -101 -271 -148 -84 -46
-155 -82 -157 -80 -14 14 -435 564 -435 568 0 12 499 198 536 199 6 1 40 -29
75 -66z m-3803 -235 l141 -277 -271 -246 c-150 -135 -275 -245 -278 -245 -4 0
-64 117 -134 261 l-127 261 42 46 c134 148 473 492 479 485 4 -4 70 -133 148
-285z m1572 -26 c78 -139 141 -254 139 -256 -2 -1 -83 -58 -179 -126 -96 -68
-271 -195 -389 -283 -117 -87 -216 -155 -221 -150 -7 8 -166 273 -240 402 -35
61 -40 75 -29 86 89 82 449 376 623 507 103 78 132 96 141 86 6 -7 76 -127
155 -266z m1483 -346 c125 -162 227 -298 227 -303 -1 -4 -38 -30 -83 -57 -45
-28 -182 -114 -305 -193 -123 -79 -227 -141 -232 -138 -27 16 -415 649 -406
663 14 23 536 322 562 322 6 0 113 -132 237 -294z m-3893 -426 c66 -132 120
-244 120 -249 0 -21 -758 -680 -1105 -960 -1383 -1117 -2666 -1821 -4164
-2286 -96 -30 -177 -53 -179 -51 -2 2 14 10 35 16 21 7 134 53 251 101 1312
546 2432 1273 3592 2334 231 212 867 846 1134 1133 104 111 191 202 193 202 1
0 57 -108 123 -240z m2836 43 c42 -71 136 -219 207 -331 71 -112 127 -205 125
-206 -41 -36 -744 -493 -751 -489 -12 7 -272 357 -361 486 -37 54 -66 104 -63
111 9 24 729 554 754 555 6 1 46 -56 89 -126z m-1525 -105 c74 -123 135 -226
137 -230 3 -6 -568 -458 -580 -458 -8 0 -136 213 -205 340 l-41 75 272 247
c149 136 274 247 277 247 4 1 67 -99 140 -221z m3218 -320 c916 -1128 1813
-1961 2771 -2570 538 -343 1076 -612 1660 -833 157 -59 529 -185 653 -220 32
-9 57 -18 55 -19 -2 -2 -50 1 -108 5 -864 66 -1673 245 -2375 527 -213 86
-331 140 -565 257 -1052 531 -1940 1321 -2783 2477 -59 81 -107 151 -107 155
0 11 630 413 641 410 4 -1 74 -86 158 -189z m-4199 -236 c0 -5 50 -93 111
-196 61 -104 109 -189 107 -191 -2 -1 -122 -92 -268 -202 -1408 -1061 -2538
-1690 -3865 -2151 -110 -38 -213 -72 -230 -75 l-30 -7 30 15 c17 8 116 53 220
101 1035 471 2030 1115 3095 2003 233 195 642 549 760 659 54 50 70 60 70 44z
m1431 -144 c51 -73 145 -204 210 -290 l118 -157 -82 -54 c-133 -87 -534 -337
-550 -343 -16 -6 -94 95 -277 359 -87 126 -101 151 -89 162 12 12 571 454 576
455 0 0 43 -60 94 -132z m1735 -198 c190 -267 477 -626 703 -880 224 -251 607
-623 856 -832 532 -445 1163 -836 1770 -1098 77 -33 134 -60 126 -60 -31 0
-436 105 -634 164 -1278 385 -2353 1031 -3273 1968 -165 168 -364 386 -364
398 0 13 713 481 720 473 4 -4 47 -64 96 -133z m-2655 -487 c40 -60 115 -166
166 -236 51 -70 93 -131 93 -135 0 -8 -289 -173 -580 -332 -222 -121 -822
-420 -1045 -520 -477 -214 -935 -394 -1420 -556 -311 -103 -824 -258 -831
-251 -2 2 33 18 79 37 45 18 179 77 298 131 938 424 1850 982 2889 1767 146
110 268 201 272 201 3 1 39 -47 79 -106z m1620 -208 c153 -176 561 -583 739
-737 711 -617 1444 -1065 2305 -1408 154 -61 228 -88 565 -204 l105 -36 -255
5 c-140 2 -309 9 -375 15 -1210 106 -2237 555 -3160 1381 -252 226 -700 699
-679 718 5 5 106 69 224 143 118 75 258 163 310 196 52 34 98 61 101 59 4 -1
58 -60 120 -132z"/>
</g>
</svg>
